<svg width="125" height="24" viewBox="0 0 125 24" fill="none" xmlns="http://www.w3.org/2000/svg">
<path d="M12.5 17.27L18.68 21L17.04 13.97L22.5 9.24L15.31 8.63L12.5 2L9.69 8.63L2.5 9.24L7.96 13.97L6.32 21L12.5 17.27Z" fill="#FFCC80"/>
<path d="M37.5 17.27L43.68 21L42.04 13.97L47.5 9.24L40.31 8.63L37.5 2L34.69 8.63L27.5 9.24L32.96 13.97L31.32 21L37.5 17.27Z" fill="#FFCC80"/>
<path d="M62.5 17.27L68.68 21L67.04 13.97L72.5 9.24L65.31 8.63L62.5 2L59.69 8.63L52.5 9.24L57.96 13.97L56.32 21L62.5 17.27Z" fill="#FFCC80"/>
<path d="M87.5 17.27L93.68 21L92.04 13.97L97.5 9.24L90.31 8.63L87.5 2L84.69 8.63L77.5 9.24L82.96 13.97L81.32 21L87.5 17.27Z" fill="#FFCC80"/>
<path d="M112.5 17.27L118.68 21L117.04 13.97L122.5 9.24L115.31 8.63L112.5 2L109.69 8.63L102.5 9.24L107.96 13.97L106.32 21L112.5 17.27Z" fill="#FFCC80"/>
</svg>
